<?xml version="1.0" encoding="iso-8859-1"?>
<!-- Generator: Adobe Illustrator 18.1.1, SVG Export Plug-In . SVG Version: 6.00 Build 0)  -->
<svg version="1.1" id="Capa_1" xmlns="http://www.w3.org/2000/svg" xmlns:xlink="http://www.w3.org/1999/xlink" x="0px" y="0px"
	 viewBox="0 0 472.912 472.912" style="enable-background:new 0 0 472.912 472.912;" xml:space="preserve">
<g>
	<g>
		<g>
			<path style="fill:#010002;" d="M236.477,0.016C106.078,0.016,0,106.07,0,236.444c0,130.39,106.078,236.452,236.477,236.452
				c130.374,0,236.436-106.07,236.436-236.452C472.912,106.07,366.851,0.016,236.477,0.016z M236.477,438.016
				c-111.134,0-201.564-90.43-201.564-201.564c0-111.126,90.43-201.54,201.564-201.54c111.126,0,201.54,90.422,201.54,201.54
				C438.016,347.586,347.602,438.016,236.477,438.016z"/>
		</g>
		<g>
			<path style="fill:#010002;" d="M236.452,61.354c-9.616,0-17.444,7.828-17.444,17.444v140.21H94.771
				c-9.624,0-17.444,7.836-17.444,17.468c0,9.616,7.828,17.444,17.444,17.444h141.681c9.624,0,17.444-7.828,17.444-17.444V78.798
				C253.896,69.174,246.076,61.354,236.452,61.354z"/>
		</g>
	</g>
</g>
<g>
</g>
<g>
</g>
<g>
</g>
<g>
</g>
<g>
</g>
<g>
</g>
<g>
</g>
<g>
</g>
<g>
</g>
<g>
</g>
<g>
</g>
<g>
</g>
<g>
</g>
<g>
</g>
<g>
</g>
</svg>
